<svg xmlns="http://www.w3.org/2000/svg" version="1.1" xmlns:xlink="http://www.w3.org/1999/xlink" xmlns:svgjs="http://svgjs.dev/svgjs" width="1500" height="496" viewBox="0 0 1500 496"><g transform="matrix(1,0,0,1,-0.9090909090909918,-0.3558906088780702)"><svg viewBox="0 0 396 131" data-background-color="#ffffff" preserveAspectRatio="xMidYMid meet" height="496" width="1500" xmlns="http://www.w3.org/2000/svg" xmlns:xlink="http://www.w3.org/1999/xlink"><g id="tight-bounds" transform="matrix(1,0,0,1,0.2400000000000091,0.09399530194158956)"><svg viewBox="0 0 395.52 130.81200939611685" height="130.81200939611685" width="395.52"><g><svg viewBox="0 0 663.6280014193359 219.4845073755876" height="130.81200939611685" width="395.52"><g transform="matrix(1,0,0,1,268.1080014193359,30.191346087206597)"><svg viewBox="0 0 395.52 159.10181520117442" height="159.10181520117442" width="395.52"><g id="textblocktransform"><svg viewBox="0 0 395.52 159.10181520117442" height="159.10181520117442" width="395.52" id="textblock"><g><svg viewBox="0 0 395.52 102.98271328671329" height="102.98271328671329" width="395.52"><g transform="matrix(1,0,0,1,0,0)"><svg width="395.52" viewBox="2.59 -31.61 123.25999999999999 32.101011235955056" height="102.98271328671329" data-palette-color="#ff5858"><path d="M2.59-15.52L2.59-15.52Q2.59-18.51 3.45-21.55 4.31-24.6 6.09-26.78L6.09-26.78Q9.89-31.61 16.9-31.61L16.9-31.61Q20.92-31.61 24.71-29.83L24.71-29.83Q25.69-29.43 25.69-28.51L25.69-28.51Q25.69-26.78 24.31-26.72L24.31-26.72Q24.02-26.72 23.79-26.78L23.79-26.78Q19.83-28.16 17.5-28.16 15.17-28.16 13.62-27.64 12.07-27.13 10.92-26.21 9.77-25.29 8.97-24.08 8.16-22.87 7.7-21.38L7.7-21.38Q6.72-18.62 6.72-15.52L6.72-15.52Q6.72-10.46 8.97-7.01L8.97-7.01Q11.61-2.93 17.13-2.93L17.13-2.93Q20.92-2.93 24.37-4.94L24.37-4.94Q24.83-5.06 25.26-5.06 25.69-5.06 26.06-4.66 26.44-4.25 26.44-3.62 26.44-2.99 25.98-2.44 25.52-1.9 24.74-1.47 23.97-1.03 23.02-0.69 22.07-0.34 21.03-0.11L21.03-0.11Q18.85 0.46 16.9 0.46L16.9 0.46Q9.83 0.46 6.09-4.31L6.09-4.31Q2.59-8.62 2.59-15.52ZM53.22-11.55L53.22-11.55Q53.22-10.34 51.84-10.23L51.84-10.23 36.09-10.23Q36.32-4.37 40.69-2.64L40.69-2.64Q41.89-2.24 43.45-2.24L43.45-2.24Q46.66-2.24 50-4.6L50-4.6Q51.03-5.17 51.72-4.48L51.72-4.48Q52.07-4.14 51.95-3.79L51.95-3.79Q51.95-2.99 51.55-2.64L51.55-2.64Q48.39 0.52 43.22 0.46L43.22 0.46Q38.5 0.46 35.63-2.59L35.63-2.59Q32.41-5.75 32.41-10.92L32.41-10.92Q32.41-15.69 35.05-18.79L35.05-18.79Q37.81-22.24 42.87-22.24L42.87-22.24Q47.93-22.24 50.57-19.2L50.57-19.2Q53.1-16.44 53.22-11.55ZM36.2-12.59L49.83-12.59Q49.65-15.69 47.81-17.7L47.81-17.7Q46.09-19.54 42.87-19.54L42.87-19.54Q40.11-19.54 38.16-17.47L38.16-17.47Q36.38-15.4 36.2-12.59L36.2-12.59ZM74.13-1.61L74.13-3.62Q71.26 0.46 66.32 0.46L66.32 0.46Q61.83 0.46 59.31-3.1L59.31-3.1Q57.12-6.32 57.12-10.92L57.12-10.92Q57.12-18.62 62.24-21.26L62.24-21.26Q63.96-22.24 65.71-22.24 67.47-22.24 68.62-22.04 69.77-21.84 70.8-21.26L70.8-21.26Q72.98-20.17 74.13-18.28L74.13-18.28 74.13-29.66Q74.13-30.52 74.71-30.89 75.28-31.26 75.97-31.26L75.97-31.26Q76.66-31.26 77.18-30.89 77.7-30.52 77.7-29.66L77.7-29.66 77.7-1.61Q77.7-0.8 77.12-0.4 76.55 0 76.09 0 75.63 0 75.31-0.09 75-0.17 74.71-0.46L74.71-0.46Q74.13-0.86 74.13-1.61L74.13-1.61ZM67.01-2.24L67.01-2.24Q74.02-2.24 74.02-11.26L74.02-11.26Q74.02-17.07 70.51-18.85L70.51-18.85Q69.19-19.54 67.35-19.54 65.51-19.54 64.31-18.82 63.1-18.1 62.29-16.9L62.29-16.9Q60.86-14.66 60.86-11.21L60.86-11.21Q60.86-6.09 63.27-3.68L63.27-3.68Q64.65-2.24 67.01-2.24ZM87.46-20.11L87.46-18.16Q88.84-22.24 93.5-22.24L93.5-22.24Q94.36-22.24 94.79-21.75 95.22-21.26 95.22-20.72 95.22-20.17 94.79-19.68 94.36-19.2 93.21-19.2 92.06-19.2 90.91-18.74 89.76-18.28 89.02-17.41L89.02-17.41Q87.46-15.52 87.46-12.41L87.46-12.41 87.46-1.61Q87.46-0.8 86.89-0.4 86.31 0 85.85 0 85.39 0 85.11-0.09 84.82-0.17 84.53-0.46L84.53-0.46Q84.02-0.8 84.02-1.61L84.02-1.61 84.02-20.11Q84.02-20.86 84.53-21.35 85.05-21.84 85.83-21.84 86.6-21.84 87.03-21.35 87.46-20.86 87.46-20.11L87.46-20.11ZM103.67-29.43L103.67-29.43Q103.67-28.51 103.04-27.93 102.4-27.36 101.25-27.36 100.1-27.36 99.47-27.93 98.84-28.51 98.84-29.43L98.84-29.43Q98.84-30.23 99.47-30.8 100.1-31.38 101.28-31.38 102.46-31.38 103.06-30.8 103.67-30.23 103.67-29.43ZM99.53-1.72L99.53-20Q99.53-20.86 100.1-21.35 100.68-21.84 101.14-21.84 101.6-21.84 101.89-21.7 102.17-21.55 102.46-21.26L102.46-21.26Q103.09-20.86 103.09-20L103.09-20 103.09-1.72Q103.09-0.86 102.52-0.43 101.94 0 101.25 0L101.25 0Q100.56 0 100.05-0.43 99.53-0.86 99.53-1.72L99.53-1.72ZM108.38-10.92L108.38-10.92Q108.38-15.69 111.08-18.85L111.08-18.85Q114.01-22.24 118.72-22.24L118.72-22.24Q122.75-22.24 124.87-20.57L124.87-20.57Q125.5-20.11 125.5-19.48 125.5-18.85 125.16-18.48 124.82-18.1 124.36-18.1 123.9-18.1 123.67-18.28L123.67-18.28Q121.48-19.54 119.07-19.48L119.07-19.48Q115.91-19.48 114.13-17.13L114.13-17.13Q112.11-14.71 112.11-10.92L112.11-10.92Q112.11-7.41 113.55-5L113.55-5Q115.27-2.24 119.07-2.24L119.07-2.24Q121.14-2.24 124.13-3.68L124.13-3.68Q124.93-4.14 125.5-3.45L125.5-3.45Q125.85-3.1 125.85-2.5 125.85-1.9 125.1-1.29 124.36-0.69 123.32-0.34L123.32-0.34Q120.79 0.52 118.44 0.49 116.08 0.46 114.18-0.4 112.29-1.26 111.02-2.93L111.02-2.93Q108.38-6.09 108.38-10.92Z" opacity="1" transform="matrix(1,0,0,1,0,0)" fill="#ff5858" class="wordmark-text-0" data-fill-palette-color="primary" id="text-0"></path></svg></g></svg></g><g transform="matrix(1,0,0,1,0,127.29446030858742)"><svg viewBox="0 0 232.209792 31.80735489258699" height="31.80735489258699" width="232.209792"><g transform="matrix(1,0,0,1,0,0)"><svg width="232.209792" viewBox="2.27 -41.94 387.28000000000003 53.05" height="31.80735489258699" data-palette-color="#ff5858"><path d="M11.3 0L2.27-29.05 6.62-29.05 12.77-7.71 13.87-3.05 14.67-6.96 21.02-29.05 25.02-29.05 31.27-7.71 32.35-3 33.13-6.98 39.18-29.05 43.58-29.05 34.99 0 29.64 0 24.07-18.63 22.95-24.34 21.95-18.63 16.41 0 11.3 0ZM72.78-5.03L73.97-1.54Q68.92 0.49 62.81 0.49L62.81 0.49Q59.27 0.49 56.81-0.24L56.81-0.24Q52.88-1.37 51.58-4.88L51.58-4.88Q50.39-8.18 50.39-14.65L50.39-14.65 50.39-15.89Q50.39-23.63 53.61-26.76L53.61-26.76Q56.52-29.54 63.3-29.54L63.3-29.54Q69.92-29.54 72.34-26.27L72.34-26.27Q73.51-24.68 73.89-22.42 74.27-20.17 74.27-18.12L74.27-18.12Q74.27-14.92 74.12-13.16L74.12-13.16Q70.68-13.01 67.94-13.01L67.94-13.01Q67.94-13.01 64.01-13.01L64.01-13.01Q57.86-13.01 54.54-13.55L54.54-13.55Q54.54-7.93 55.95-5.71L55.95-5.71Q57.69-3 62.86-3 68.04-3 72.78-5.03L72.78-5.03ZM54.54-16.41L70.14-16.41 70.14-18.75Q70.14-22.58 68.65-24.22L68.65-24.22Q66.99-26.05 62.91-26.05L62.91-26.05Q58.03-26.05 56.25-23.93L56.25-23.93Q54.54-21.9 54.54-16.41L54.54-16.41ZM88.33-2.71L88.33-2.71 87.81 0 84.37 0 84.37-41.55 88.42-41.94 88.42-26.27Q93.48-29.54 98.19-29.54L98.19-29.54Q104.73-29.54 106.49-25.51L106.49-25.51Q107.59-22.97 107.73-18.38L107.73-18.38Q107.78-16.16 107.78-13.5L107.78-13.5 107.78-11.55Q107.78-8.2 107.36-6.52 106.93-4.83 106.27-3.63 105.61-2.42 104.46-1.51L104.46-1.51Q101.97 0.49 97.33 0.49 92.7 0.49 88.33-2.71ZM88.42-23.05L88.42-5.91Q93.6-3.1 97.14-3.1L97.14-3.1 97.43-3.1Q101.61-3.1 102.8-5.42L102.8-5.42Q103.44-6.59 103.58-8.47 103.73-10.35 103.73-12.99L103.73-12.99 103.73-16.5Q103.73-21.95 102.49-23.83L102.49-23.83Q101.26-25.71 97.85-25.71L97.85-25.71 97.24-25.71Q94.18-25.71 90.16-23.9L90.16-23.9Q89.11-23.44 88.42-23.05L88.42-23.05ZM149.75 0.1L149.16-3.25Q144.01 0.49 138.69 0.49L138.69 0.49Q132.8 0.49 130.85-3.83L130.85-3.83Q129.73-6.27 129.59-9 129.46-11.72 129.46-13.78 129.46-15.84 129.49-17.94 129.53-20.04 129.8-21.83 130.07-23.61 130.64-25.04 131.22-26.46 132.29-27.47L132.29-27.47Q134.51-29.54 139.63-29.54 144.74-29.54 148.87-27.76L148.87-27.76 148.87-41.55 152.92-41.94 152.92-13.35Q152.92-4.93 153.38-0.2L153.38-0.2 149.75 0.1ZM148.84-13.55L148.87-24.41Q144.47-25.88 140.37-25.88L140.37-25.88Q137.39-25.88 136.44-25.39 135.49-24.9 134.99-24.12 134.49-23.34 134.17-21.97L134.17-21.97Q133.61-19.41 133.61-13.53L133.61-13.53 133.61-12.99Q133.61-7.5 134.8-5.4L134.8-5.4Q136.1-3.17 139.61-3.17L139.61-3.17 139.98-3.17Q143.35-3.17 147.16-5.32L147.16-5.32Q148.21-5.91 148.96-6.49L148.96-6.49 148.96-6.54Q148.84-8.81 148.84-13.55L148.84-13.55ZM185.14-5.03L186.34-1.54Q181.29 0.49 175.18 0.49L175.18 0.49Q171.64 0.49 169.18-0.24L169.18-0.24Q165.25-1.37 163.95-4.88L163.95-4.88Q162.76-8.18 162.76-14.65L162.76-14.65 162.76-15.89Q162.76-23.63 165.98-26.76L165.98-26.76Q168.88-29.54 175.67-29.54L175.67-29.54Q182.29-29.54 184.7-26.27L184.7-26.27Q185.88-24.68 186.25-22.42 186.63-20.17 186.63-18.12L186.63-18.12Q186.63-14.92 186.49-13.16L186.49-13.16Q183.04-13.01 180.31-13.01L180.31-13.01Q180.31-13.01 176.38-13.01L176.38-13.01Q170.23-13.01 166.91-13.55L166.91-13.55Q166.91-7.93 168.32-5.71L168.32-5.71Q170.06-3 175.23-3 180.41-3 185.14-5.03L185.14-5.03ZM166.91-16.41L182.51-16.41 182.51-18.75Q182.51-22.58 181.02-24.22L181.02-24.22Q179.36-26.05 175.28-26.05L175.28-26.05Q170.4-26.05 168.62-23.93L168.62-23.93Q166.91-21.9 166.91-16.41L166.91-16.41ZM203.4 0L193.44-29.05 197.81-29.05 205.43-5.35 206.16-2.93 206.85-5.35 214.12-29.05 218.54-29.05 208.73 0 203.4 0ZM247.57-5.03L248.76-1.54Q243.71 0.49 237.6 0.49L237.6 0.49Q234.06 0.49 231.6-0.24L231.6-0.24Q227.67-1.37 226.37-4.88L226.37-4.88Q225.18-8.18 225.18-14.65L225.18-14.65 225.18-15.89Q225.18-23.63 228.4-26.76L228.4-26.76Q231.31-29.54 238.09-29.54L238.09-29.54Q244.71-29.54 247.13-26.27L247.13-26.27Q248.3-24.68 248.68-22.42 249.05-20.17 249.05-18.12L249.05-18.12Q249.05-14.92 248.91-13.16L248.91-13.16Q245.47-13.01 242.73-13.01L242.73-13.01Q242.73-13.01 238.8-13.01L238.8-13.01Q232.65-13.01 229.33-13.55L229.33-13.55Q229.33-7.93 230.74-5.71L230.74-5.71Q232.48-3 237.65-3 242.83-3 247.57-5.03L247.57-5.03ZM229.33-16.41L244.93-16.41 244.93-18.75Q244.93-22.58 243.44-24.22L243.44-24.22Q241.78-26.05 237.7-26.05L237.7-26.05Q232.82-26.05 231.04-23.93L231.04-23.93Q229.33-21.9 229.33-16.41L229.33-16.41ZM260.23 0L260.19-41.5 264.21-41.85 264.21 0 260.23 0ZM275.12-14.45L275.12-14.45Q275.12-20 275.69-22.19 276.25-24.39 277.06-25.67 277.88-26.95 279.27-27.81L279.27-27.81Q282.06-29.54 287.5-29.54L287.5-29.54Q295.36-29.54 297.61-25.66L297.61-25.66Q298.95-23.32 299.15-19.04L299.15-19.04Q299.22-17.02 299.22-14.58 299.22-12.13 299.06-10.02 298.9-7.91 298.44-6.23 297.98-4.54 297.15-3.28 296.32-2.03 294.95-1.17L294.95-1.17Q292.26 0.49 287.11 0.49L287.11 0.49Q279.4 0.49 276.98-3.32L276.98-3.32Q275.49-5.69 275.25-9.96L275.25-9.96Q275.12-12.01 275.12-14.45ZM281.76-4.27Q282.64-3.61 283.97-3.28 285.3-2.95 287.61-2.95 289.92-2.95 291.49-3.61 293.07-4.27 293.86-5.73 294.66-7.18 294.86-9.5 295.07-11.82 295.07-14.89 295.07-17.97 294.89-20.02 294.7-22.07 293.97-23.41L293.97-23.41Q292.51-26.05 287.45-26.05L287.45-26.05Q282.11-26.05 280.5-23.41L280.5-23.41Q279.69-22.07 279.47-20 279.25-17.92 279.25-15.48 279.25-13.04 279.31-11.34 279.37-9.64 279.63-8.29 279.88-6.93 280.39-5.93 280.89-4.93 281.76-4.27ZM313.16-1.73L313.16-1.73 313.16 11.11 309.11 11.11 309.11-29.05 312.4-29.05 312.87-26.05Q315.72-28.2 320.31-29.2L320.31-29.2Q321.97-29.54 323.93-29.54 325.88-29.54 327.38-29.03 328.88-28.52 329.86-27.6 330.83-26.68 331.37-25.42 331.91-24.15 332.18-22.66L332.18-22.66Q332.52-20.61 332.52-16.11L332.52-16.11 332.52-15.55Q332.52-9.84 332.13-7.64 331.74-5.44 331.1-4.02 330.47-2.59 329.35-1.59L329.35-1.59Q327.03 0.49 322.17 0.49 317.31 0.49 313.16-1.73ZM313.16-22.92L313.16-5.08Q317.31-3.17 321.87-3.17L321.87-3.17Q324.85-3.17 326.22-4.27L326.22-4.27Q328.08-5.79 328.3-11.33L328.3-11.33Q328.37-13.16 328.37-15.53L328.37-15.53 328.37-16.06Q328.37-21.68 327.39-23.58L327.39-23.58Q326.29-25.76 322.85-25.76L322.85-25.76 322.48-25.76Q318.9-25.76 315.04-23.97L315.04-23.97Q313.92-23.46 313.16-22.92L313.16-22.92ZM364.11-5.03L365.3-1.54Q360.25 0.49 354.15 0.49L354.15 0.49Q350.61 0.49 348.14-0.24L348.14-0.24Q344.21-1.37 342.92-4.88L342.92-4.88Q341.72-8.18 341.72-14.65L341.72-14.65 341.72-15.89Q341.72-23.63 344.94-26.76L344.94-26.76Q347.85-29.54 354.64-29.54L354.64-29.54Q361.25-29.54 363.67-26.27L363.67-26.27Q364.84-24.68 365.22-22.42 365.6-20.17 365.6-18.12L365.6-18.12Q365.6-14.92 365.45-13.16L365.45-13.16Q362.01-13.01 359.27-13.01L359.27-13.01Q359.27-13.01 355.34-13.01L355.34-13.01Q349.19-13.01 345.87-13.55L345.87-13.55Q345.87-7.93 347.29-5.71L347.29-5.71Q349.02-3 354.2-3 359.37-3 364.11-5.03L364.11-5.03ZM345.87-16.41L361.47-16.41 361.47-18.75Q361.47-22.58 359.98-24.22L359.98-24.22Q358.32-26.05 354.24-26.05L354.24-26.05Q349.36-26.05 347.58-23.93L347.58-23.93Q345.87-21.9 345.87-16.41L345.87-16.41ZM386.27-25.51L386.27-25.51Q383.15-25.51 379.9-22.39L379.9-22.39 379.9 0 375.85 0 375.85-29.05 379.41-29.05 379.8-25.2Q380.95-26.98 382.28-27.98 383.61-28.98 384.47-29.2L384.47-29.2Q385.69-29.54 386.79-29.54 387.89-29.54 389.55-29.1L389.55-29.1 389.18-25.22Q387.93-25.51 386.27-25.51Z" opacity="1" transform="matrix(1,0,0,1,0,0)" fill="#ff5858" class="slogan-text-1" data-fill-palette-color="secondary" id="text-1"></path></svg></g></svg></g></svg></g></svg></g><g><svg viewBox="0 0 219.4845073755876 219.4845073755876" height="219.4845073755876" width="219.4845073755876"><g><svg></svg></g><g id="icon-0"><svg viewBox="0 0 219.4845073755876 219.4845073755876" height="219.4845073755876" width="219.4845073755876"><g><path d="M0 109.742c0-60.609 49.133-109.742 109.742-109.742 60.609 0 109.742 49.133 109.742 109.742 0 60.609-49.133 109.742-109.742 109.742-60.609 0-109.742-49.133-109.742-109.742zM109.742 210.197c55.48 0 100.455-44.975 100.455-100.455 0-55.48-44.975-100.455-100.455-100.455-55.48 0-100.455 44.975-100.455 100.455 0 55.48 44.975 100.455 100.455 100.455z" data-fill-palette-color="accent" fill="#ff5858" stroke="transparent"></path></g><g transform="matrix(1,0,0,1,53.43623256465833,65.06336690559931)"><svg viewBox="0 0 112.61204224627095 89.35777356438899" height="89.35777356438899" width="112.61204224627095"><g><svg xmlns="http://www.w3.org/2000/svg" xmlns:xlink="http://www.w3.org/1999/xlink" version="1.1" x="0" y="0" viewBox="2.3 12.100000000000001 95.40000000000002 75.70000000000002" enable-background="new 0 0 100 100" xml:space="preserve" height="89.35777356438899" width="112.61204224627095" class="icon-cg-0" data-fill-palette-color="accent" id="cg-0"><path d="M84.7 25.7c-0.5-2.2-1.3-4.4-2.4-6.5 3.2 1.2 5.8 3.5 7.4 6.5H84.7zM72.2 19.2c-3.2 1.2-5.9 3.5-7.6 6.5h5C70.2 23.4 71.1 21.2 72.2 19.2zM76.1 18.3c-1.5 2.3-2.7 4.8-3.4 7.4h9c-0.7-2.6-1.8-5.1-3.3-7.4-0.4 0-0.8-0.1-1.3-0.1C76.8 18.3 76.5 18.3 76.1 18.3zM15.4 66.2V72h61.8v-5-2.9V57c2.6 0 5.2-0.4 7.7-1.2v8.4 2.9 4.5c0 1 0.3 2 1 2.7l3.9 4.8c0.3 0.4 0.5 0.8 0.5 1.3v2.2c0 2.9-2.3 5.2-5.2 5.2H7.5c-2.9 0-5.2-2.3-5.2-5.2v-2.2c0-0.5 0.2-0.9 0.5-1.3l4-4.9c0.6-0.8 1-1.7 1-2.7v-5.7-1.7V32.6c0-4.2 3.4-7.7 7.7-7.7H54c-0.8 2.5-1.2 5.1-1.2 7.7H15.4c0 0 0 0 0 0v31.6V66.2zM38 80.3c0 1.5 1.2 2.7 2.7 2.7H52c1.5 0 2.7-1.2 2.7-2.7v-0.6H38V80.3zM68.8 32.8c0-1.4 0.1-2.8 0.3-4.2h-5.7c-0.4 1.3-0.6 2.6-0.6 4 0 1.4 0.2 2.7 0.6 3.9h5.6C68.9 35.3 68.8 34 68.8 32.8zM64.6 39.5c1.6 2.9 4.2 5.2 7.3 6.5-1.1-2.1-1.8-4.2-2.4-6.5H64.6zM71.7 32.8c0 1.3 0.1 2.5 0.3 3.8h10.3c0.2-1.4 0.3-2.7 0.3-4.1 0-1.3-0.1-2.5-0.3-3.8H72.1C71.8 30 71.7 31.4 71.7 32.8zM91.7 18.1c8 8 8 21 0 28.9-6.7 6.7-17 7.8-24.8 3.2l0 0c-3.1 2.3-6.4 2.7-8.7 2.4-0.8-0.1-0.9-1.2-0.2-1.5 2.1-1 3.4-3.1 4.2-4.8l-0.2-0.2c-7.1-8-6.8-20.3 0.9-28C70.7 10.1 83.7 10.1 91.7 18.1zM89.4 20.4c-3.3-3.3-7.6-5.1-12.2-5.1-4.6 0-8.9 1.8-12.2 5.1C61.8 23.7 60 28 60 32.6c0 4.6 1.8 8.9 5.1 12.2 3.3 3.3 7.6 5.1 12.2 5.1 4.6 0 8.9-1.8 12.2-5.1 3.3-3.3 5.1-7.6 5.1-12.2C94.5 28 92.7 23.7 89.4 20.4zM75.9 46.9c0.4 0 0.9 0.1 1.3 0.1 0.3 0 0.7 0 1 0 1.5-2.3 2.7-4.8 3.4-7.4h-9.1C73.3 42.1 74.4 44.6 75.9 46.9zM85.5 32.4c0 1.4-0.1 2.8-0.3 4.1H91c0.4-1.3 0.6-2.6 0.6-3.9 0-1.4-0.2-2.7-0.6-4h-5.7C85.4 29.9 85.5 31.1 85.5 32.4zM82.1 46.1c3.3-1.2 6-3.6 7.7-6.6h-5.1C84.1 41.8 83.2 44 82.1 46.1z" fill="#ff5858" data-fill-palette-color="accent"></path></svg></g></svg></g></svg></g></svg></g></svg></g><defs></defs></svg><rect width="395.52" height="130.81200939611685" fill="none" stroke="none" visibility="hidden"></rect></g></svg></g></svg>